<svg xmlns="http://www.w3.org/2000/svg" width="629px" height="308px" xmlns:xlink="http://www.w3.org/1999/xlink" version="1.1" style="background-color: rgb(255, 255, 255);"><defs/><g transform="translate(0.5,0.5)"><rect x="261" y="1" width="175" height="150" rx="7.5" ry="7.5" fill="white" stroke="black" pointer-events="none"/><g fill="black" font-family="Arial,Helvetica" font-size="12px"><text x="284" y="25">Olamudddddddddddddddddddddddddddddddddddddddddddddd</text></g><ellipse cx="19" cy="269" rx="17.5" ry="17.5" fill="black" stroke="black" pointer-events="none"/><ellipse cx="229" cy="289" rx="17.5" ry="17.5" fill="#ffffff" stroke="black" pointer-events="none"/><ellipse cx="229" cy="289" rx="14.4375" ry="14.4375" fill="#000000" stroke="black" pointer-events="none"/><rect x="211" y="173.5" width="150" height="75" fill="gray" stroke="gray" transform="translate(2,3)" opacity="1"/><rect x="211" y="173.5" width="150" height="75" fill="white" stroke="black" pointer-events="none"/><path d="M 353.5 241 C 353.5 233.75 347.62 227.88 340.38 227.88 C 333.13 227.88 327.25 233.75 327.25 241 Z" fill="white" stroke="black" stroke-miterlimit="10" pointer-events="none"/><ellipse cx="340" cy="221" rx="6.5625" ry="6.5625" fill="white" stroke="black" pointer-events="none"/><g fill="black" font-family="Arial,Helvetica" text-anchor="middle" font-size="12px"><text x="286" y="215">Ação do Usuário</text></g><path d="M 229 248.5 L 229 254.13 Q 229 259.75 229 261.32 L 229 262.88" fill="none" stroke="black" stroke-miterlimit="10" pointer-events="none"/><path d="M 229 269.88 L 225.5 262.88 L 232.5 262.88 Z" fill="black" stroke="black" stroke-miterlimit="10" pointer-events="none"/><path d="M 36 268.5 L 114 268.5 Q 124 268.5 124 258.5 L 124 221 Q 124 211 134 211 L 202.88 211" fill="none" stroke="black" stroke-miterlimit="10" pointer-events="none"/><path d="M 209.88 211 L 202.88 214.5 L 202.88 207.5 Z" fill="black" stroke="black" stroke-miterlimit="10" pointer-events="none"/></g></svg>