<svg xmlns="http://www.w3.org/2000/svg" width="1745px" height="805px" xmlns:xlink="http://www.w3.org/1999/xlink" version="1.1" style="background-color: rgb(255, 255, 255);"><defs/><g transform="translate(0.5,0.5)"><ellipse cx="19" cy="133" rx="17.5" ry="17.5" fill="black" stroke="black" pointer-events="none"/><rect x="211" y="1" width="1360" height="802" rx="40.1" ry="40.1" fill="white" stroke="black" pointer-events="none"/><g fill="black" font-family="Arial,Helvetica" font-size="12px"><text x="234" y="25">Pesquisar, Listar itens e Filtrar</text></g><path d="M 36 133 L 121 133 Q 131 133 141 133 L 242.88 133" fill="none" stroke="black" stroke-miterlimit="10" pointer-events="none"/><path d="M 249.88 133 L 242.88 136.5 L 242.88 129.5 Z" fill="black" stroke="black" stroke-miterlimit="10" pointer-events="none"/><g fill="black" font-family="Arial,Helvetica" text-anchor="middle" font-size="12px"><text x="130.5" y="128">Acessar tela de pesquisa</text></g><rect x="561" y="95.5" width="150" height="75" fill="gray" stroke="gray" transform="translate(2,3)" opacity="1"/><rect x="561" y="95.5" width="150" height="75" fill="white" stroke="black" pointer-events="none"/><ellipse cx="690" cy="150" rx="13.125" ry="13.125" fill="white" stroke="black" pointer-events="none"/><ellipse cx="690" cy="150" rx="10.34090909090909" ry="10.34090909090909" fill="none" stroke="black" pointer-events="none"/><path d="M 690.38 149.88 L 690.91 140.99 M 690.38 149.88 L 696.21 149.88 M 690.38 139.53 L 690.38 140.86 M 695.55 140.89 L 694.8 142.19 M 699.31 144.65 L 698.01 145.45 M 700.72 149.88 L 699.39 149.88 M 699.31 155.1 L 698.01 154.3 M 685.2 140.89 L 685.95 142.19 M 695.55 158.86 L 694.8 157.56 M 690.38 158.89 L 690.38 160.22 M 685.2 158.86 L 685.95 157.56 M 681.44 155.1 L 682.74 154.3 M 680.03 149.88 L 681.36 149.88 M 681.44 144.65 L 682.74 145.45" fill="none" stroke="black" stroke-miterlimit="10" pointer-events="none"/><g fill="black" font-family="Arial,Helvetica" text-anchor="middle" font-size="12px"><text x="636" y="130">Buscando resultados,</text><text x="636" y="144">aguarde!</text></g><path d="M 401 133 L 471 133 Q 481 133 491 133 L 552.88 133" fill="none" stroke="black" stroke-miterlimit="10" pointer-events="none"/><path d="M 559.88 133 L 552.88 136.5 L 552.88 129.5 Z" fill="black" stroke="black" stroke-miterlimit="10" pointer-events="none"/><g fill="black" font-family="Arial,Helvetica" text-anchor="middle" font-size="12px"><text x="481" y="128">pesquisar &lt;nome&gt;</text></g><rect x="1601" y="69" width="140" height="128" fill="gray" stroke="gray" stroke-width="1.28" transform="translate(2,3)" opacity="1"/><rect x="1601" y="69" width="140" height="128" fill="white" stroke="black" stroke-width="1.28" pointer-events="none"/><rect x="1601" y="69" width="140" height="15.36" fill="none" stroke="black" stroke-width="1.28" pointer-events="none"/><g fill="black" font-family="Arial,Helvetica" text-anchor="middle" font-size="12px"><text x="1671" y="83">item</text><text x="1671" y="97">id</text><text x="1671" y="111">nome</text><text x="1671" y="125">descricao</text><text x="1671" y="139">data</text></g><path d="M 1601 133 L 1166 133 Q 1156 133 1146 133 L 719.12 133" fill="none" stroke="black" stroke-miterlimit="10" stroke-dasharray="3 3" pointer-events="none"/><path d="M 712.12 133 L 719.12 129.5 L 719.12 136.5 Z" fill="black" stroke="black" stroke-miterlimit="10" pointer-events="none"/><g fill="black" font-family="Arial,Helvetica" text-anchor="middle" font-size="12px"><text x="1156" y="146">buscar item [nome]</text></g><path d="M 1146 111 C 1146 107 1161 107 1161 111 L 1161 125 C 1161 129 1146 129 1146 125 Z" fill="white" stroke="black" stroke-miterlimit="10" pointer-events="none"/><path d="M 1146 111 C 1146 114 1161 114 1161 111 M 1146 112.5 C 1146 115.5 1161 115.5 1161 112.5 M 1146 114 C 1146 117 1161 117 1161 114" fill="none" stroke="black" stroke-miterlimit="10" pointer-events="none"/><path d="M 636 95.5 L 636 53 Q 636 43 626 43 L 336 43 Q 326 43 326 53 L 326 87.38" fill="none" stroke="black" stroke-miterlimit="10" stroke-dasharray="3 3" pointer-events="none"/><path d="M 326 94.38 L 322.5 87.38 L 329.5 87.38 Z" fill="black" stroke="black" stroke-miterlimit="10" pointer-events="none"/><g fill="black" font-family="Arial,Helvetica" text-anchor="middle" font-size="12px"><text x="481" y="66.5">Nenhum resultado encontrado</text></g><path d="M 473.56 30.9 L 470.5 30.9 L 470.5 18 L 490.5 18 L 490.5 30.9 L 476.42 30.9 L 471.32 36 Z" fill="white" stroke="black" stroke-miterlimit="10" pointer-events="none"/><path d="M 636 170.5 L 636 203 Q 636 213 626 213 L 336 213 Q 326 213 326 203 L 326 178.62" fill="none" stroke="black" stroke-miterlimit="10" pointer-events="none"/><path d="M 326 171.62 L 329.5 178.62 L 322.5 178.62 Z" fill="black" stroke="black" stroke-miterlimit="10" pointer-events="none"/><g fill="block" font-family="Arial,Helvetica" text-anchor="middle" font-size="12px"><text x="484" y="232.5">Cancelar</text></g><path d="M 470.5 188 L 476.33 188 L 480.5 193.33 L 484.67 188 L 490.5 188 L 483.42 197 L 490.5 206 L 484.67 206 L 480.5 200.67 L 476.33 206 L 470.5 206 L 477.17 197 Z" fill="white" stroke="black" stroke-miterlimit="10" pointer-events="none"/><rect x="581" y="364.5" width="150" height="75" fill="gray" stroke="gray" transform="translate(2,3)" opacity="1"/><rect x="581" y="364.5" width="150" height="75" fill="white" stroke="black" pointer-events="none"/><path d="M 723.5 432 C 723.5 424.75 717.62 418.88 710.38 418.88 C 703.13 418.88 697.25 424.75 697.25 432 Z" fill="white" stroke="black" stroke-miterlimit="10" pointer-events="none"/><ellipse cx="710" cy="412" rx="6.5625" ry="6.5625" fill="white" stroke="black" pointer-events="none"/><g fill="black" font-family="Arial,Helvetica" text-anchor="middle" font-size="12px"><text x="656" y="406">Visualiza itens</text></g><path d="M 646 170.5 L 646 257.5 Q 646 267.5 646 277.5 L 646 356.38" fill="none" stroke="black" stroke-miterlimit="10" pointer-events="none"/><path d="M 646 363.38 L 642.5 356.38 L 649.5 356.38 Z" fill="black" stroke="black" stroke-miterlimit="10" pointer-events="none"/><g fill="black" font-family="Arial,Helvetica" text-anchor="middle" font-size="12px"><text x="801" y="250.5">Foram encontrados resultados correspondentes</text></g><path d="M 639.06 255.4 L 636 255.4 L 636 242.5 L 656 242.5 L 656 255.4 L 641.92 255.4 L 636.82 260.5 Z" fill="white" stroke="black" stroke-miterlimit="10" pointer-events="none"/><path d="M 639.06 255.4 L 636 255.4 L 636 242.5 L 656 242.5 L 656 255.4 L 641.92 255.4 L 636.82 260.5 Z" fill="white" stroke="black" stroke-miterlimit="10" pointer-events="none"/><path d="M 639.06 255.4 L 636 255.4 L 636 242.5 L 656 242.5 L 656 255.4 L 641.92 255.4 L 636.82 260.5 Z" fill="white" stroke="black" stroke-miterlimit="10" pointer-events="none"/><path d="M 581 402 L 321 402 Q 311 402 311 412 L 311 577.38" fill="none" stroke="black" stroke-miterlimit="10" pointer-events="none"/><path d="M 311 584.38 L 307.5 577.38 L 314.5 577.38 Z" fill="black" stroke="black" stroke-miterlimit="10" pointer-events="none"/><rect x="251" y="95.5" width="150" height="75" fill="gray" stroke="gray" transform="translate(2,3)" opacity="1"/><rect x="251" y="95.5" width="150" height="75" fill="white" stroke="black" pointer-events="none"/><path d="M 393.5 163 C 393.5 155.75 387.62 149.88 380.38 149.88 C 373.13 149.88 367.25 155.75 367.25 163 Z" fill="white" stroke="black" stroke-miterlimit="10" pointer-events="none"/><ellipse cx="380" cy="143" rx="6.5625" ry="6.5625" fill="white" stroke="black" pointer-events="none"/><path d="M 393.5 148 L 393.5 148 L 393.5 151.75 L 397.25 151.75 L 397.25 148 Z" fill="none" stroke="black" stroke-miterlimit="10" pointer-events="none"/><path d="M 393.5 137.5 L 393.5 137.5 L 393.5 146.5 L 397.25 146.5 L 397.25 137.5 Z" fill="none" stroke="black" stroke-miterlimit="10" pointer-events="none"/><g fill="black" font-family="Arial,Helvetica" text-anchor="middle" font-size="12px"><text x="326" y="137">Digitar termo de pesquisa</text></g><rect x="741" y="585.5" width="150" height="75" fill="gray" stroke="gray" transform="translate(2,3)" opacity="1"/><rect x="741" y="585.5" width="150" height="75" fill="white" stroke="black" pointer-events="none"/><ellipse cx="870" cy="640" rx="13.125" ry="13.125" fill="white" stroke="black" pointer-events="none"/><ellipse cx="870" cy="640" rx="10.34090909090909" ry="10.34090909090909" fill="none" stroke="black" pointer-events="none"/><path d="M 870.38 639.88 L 870.91 630.99 M 870.38 639.88 L 876.21 639.88 M 870.38 629.53 L 870.38 630.86 M 875.55 630.89 L 874.8 632.19 M 879.31 634.65 L 878.01 635.45 M 880.72 639.88 L 879.39 639.88 M 879.31 645.1 L 878.01 644.3 M 865.2 630.89 L 865.95 632.19 M 875.55 648.86 L 874.8 647.56 M 870.38 648.89 L 870.38 650.22 M 865.2 648.86 L 865.95 647.56 M 861.44 645.1 L 862.74 644.3 M 860.03 639.88 L 861.36 639.88 M 861.44 634.65 L 862.74 635.45" fill="none" stroke="black" stroke-miterlimit="10" pointer-events="none"/><g fill="black" font-family="Arial,Helvetica" text-anchor="middle" font-size="12px"><text x="816" y="620">Filtrando resultados, </text><text x="816" y="634">aguarde!</text></g><path d="M 401 623 L 561 623 Q 571 623 581 623 L 732.88 623" fill="none" stroke="black" stroke-miterlimit="10" pointer-events="none"/><path d="M 739.88 623 L 732.88 626.5 L 732.88 619.5 Z" fill="black" stroke="black" stroke-miterlimit="10" pointer-events="none"/><g fill="black" font-family="Arial,Helvetica" text-anchor="middle" font-size="12px"><text x="571" y="618">Filtrar &lt;data&gt;</text></g><path d="M 1673.5 197 L 1673.5 613 Q 1673.5 623 1663.5 623 L 899.12 623" fill="none" stroke="black" stroke-miterlimit="10" stroke-dasharray="3 3" pointer-events="none"/><path d="M 892.12 623 L 899.12 619.5 L 899.12 626.5 Z" fill="black" stroke="black" stroke-miterlimit="10" pointer-events="none"/><g fill="black" font-family="Arial,Helvetica" text-anchor="middle" font-size="12px"><text x="1487.25" y="646">filtrar item [data]</text></g><path d="M 1485.5 601 C 1485.5 597 1500.5 597 1500.5 601 L 1500.5 615 C 1500.5 619 1485.5 619 1485.5 615 Z" fill="white" stroke="black" stroke-miterlimit="10" pointer-events="none"/><path d="M 1485.5 601 C 1485.5 604 1500.5 604 1500.5 601 M 1485.5 602.5 C 1485.5 605.5 1500.5 605.5 1500.5 602.5 M 1485.5 604 C 1485.5 607 1500.5 607 1500.5 604" fill="none" stroke="black" stroke-miterlimit="10" pointer-events="none"/><path d="M 1485.5 601 C 1485.5 597 1500.5 597 1500.5 601 L 1500.5 615 C 1500.5 619 1485.5 619 1485.5 615 Z" fill="white" stroke="black" stroke-miterlimit="10" pointer-events="none"/><path d="M 1485.5 601 C 1485.5 604 1500.5 604 1500.5 601 M 1485.5 602.5 C 1485.5 605.5 1500.5 605.5 1500.5 602.5 M 1485.5 604 C 1485.5 607 1500.5 607 1500.5 604" fill="none" stroke="black" stroke-miterlimit="10" pointer-events="none"/><path d="M 816 585.5 L 816 533 Q 816 523 806 523 L 336 523 Q 326 523 326 533 L 326 577.38" fill="none" stroke="black" stroke-miterlimit="10" stroke-dasharray="3 3" pointer-events="none"/><path d="M 326 584.38 L 322.5 577.38 L 329.5 577.38 Z" fill="black" stroke="black" stroke-miterlimit="10" pointer-events="none"/><g fill="black" font-family="Arial,Helvetica" text-anchor="middle" font-size="12px"><text x="571" y="546.5">Não foram encontrados resultados para o filtro aplicado</text></g><path d="M 563.56 510.9 L 560.5 510.9 L 560.5 498 L 580.5 498 L 580.5 510.9 L 566.42 510.9 L 561.32 516 Z" fill="white" stroke="black" stroke-miterlimit="10" pointer-events="none"/><path d="M 563.56 510.9 L 560.5 510.9 L 560.5 498 L 580.5 498 L 580.5 510.9 L 566.42 510.9 L 561.32 516 Z" fill="white" stroke="black" stroke-miterlimit="10" pointer-events="none"/><path d="M 563.56 510.9 L 560.5 510.9 L 560.5 498 L 580.5 498 L 580.5 510.9 L 566.42 510.9 L 561.32 516 Z" fill="white" stroke="black" stroke-miterlimit="10" pointer-events="none"/><path d="M 563.56 510.9 L 560.5 510.9 L 560.5 498 L 580.5 498 L 580.5 510.9 L 566.42 510.9 L 561.32 516 Z" fill="white" stroke="black" stroke-miterlimit="10" pointer-events="none"/><path d="M 816 660.5 L 816 713 Q 816 723 806 723 L 336 723 Q 326 723 326 713 L 326 668.62" fill="none" stroke="black" stroke-miterlimit="10" pointer-events="none"/><path d="M 326 661.62 L 329.5 668.62 L 322.5 668.62 Z" fill="black" stroke="black" stroke-miterlimit="10" pointer-events="none"/><g fill="block" font-family="Arial,Helvetica" text-anchor="middle" font-size="12px"><text x="571" y="746.5">Cancelar</text></g><path d="M 560.5 698 L 566.33 698 L 570.5 703.33 L 574.67 698 L 580.5 698 L 573.42 707 L 580.5 716 L 574.67 716 L 570.5 710.67 L 566.33 716 L 560.5 716 L 567.17 707 Z" fill="white" stroke="black" stroke-miterlimit="10" pointer-events="none"/><path d="M 560.5 698 L 566.33 698 L 570.5 703.33 L 574.67 698 L 580.5 698 L 573.42 707 L 580.5 716 L 574.67 716 L 570.5 710.67 L 566.33 716 L 560.5 716 L 567.17 707 Z" fill="white" stroke="black" stroke-miterlimit="10" pointer-events="none"/><rect x="1196" y="695.5" width="150" height="75" fill="gray" stroke="gray" transform="translate(2,3)" opacity="1"/><rect x="1196" y="695.5" width="150" height="75" fill="white" stroke="black" pointer-events="none"/><path d="M 1338.5 763 C 1338.5 755.75 1332.62 749.88 1325.38 749.88 C 1318.13 749.88 1312.25 755.75 1312.25 763 Z" fill="white" stroke="black" stroke-miterlimit="10" pointer-events="none"/><ellipse cx="1325" cy="743" rx="6.5625" ry="6.5625" fill="white" stroke="black" pointer-events="none"/><g fill="black" font-family="Arial,Helvetica" text-anchor="middle" font-size="12px"><text x="1271" y="737">Visualiza lista filtrada</text></g><path d="M 831 660.5 L 831 743 Q 831 753 841 753 L 1187.88 753" fill="none" stroke="black" stroke-miterlimit="10" pointer-events="none"/><path d="M 1194.88 753 L 1187.88 756.5 L 1187.88 749.5 Z" fill="black" stroke="black" stroke-miterlimit="10" pointer-events="none"/><g fill="black" font-family="Arial,Helvetica" text-anchor="middle" font-size="12px"><text x="996.5" y="766.75">Foram encontrados resultados para o filtro aplicado</text></g><path d="M 960.56 740.9 L 957.5 740.9 L 957.5 728 L 977.5 728 L 977.5 740.9 L 963.42 740.9 L 958.32 746 Z" fill="white" stroke="black" stroke-miterlimit="10" pointer-events="none"/><path d="M 960.56 740.9 L 957.5 740.9 L 957.5 728 L 977.5 728 L 977.5 740.9 L 963.42 740.9 L 958.32 746 Z" fill="white" stroke="black" stroke-miterlimit="10" pointer-events="none"/><path d="M 960.56 740.9 L 957.5 740.9 L 957.5 728 L 977.5 728 L 977.5 740.9 L 963.42 740.9 L 958.32 746 Z" fill="white" stroke="black" stroke-miterlimit="10" pointer-events="none"/><path d="M 960.56 740.9 L 957.5 740.9 L 957.5 728 L 977.5 728 L 977.5 740.9 L 963.42 740.9 L 958.32 746 Z" fill="white" stroke="black" stroke-miterlimit="10" pointer-events="none"/><path d="M 960.56 740.9 L 957.5 740.9 L 957.5 728 L 977.5 728 L 977.5 740.9 L 963.42 740.9 L 958.32 746 Z" fill="white" stroke="black" stroke-miterlimit="10" pointer-events="none"/><rect x="251" y="585.5" width="150" height="75" fill="gray" stroke="gray" transform="translate(2,3)" opacity="1"/><rect x="251" y="585.5" width="150" height="75" fill="white" stroke="black" pointer-events="none"/><path d="M 393.5 653 C 393.5 645.75 387.62 639.88 380.38 639.88 C 373.13 639.88 367.25 645.75 367.25 653 Z" fill="white" stroke="black" stroke-miterlimit="10" pointer-events="none"/><ellipse cx="380" cy="633" rx="6.5625" ry="6.5625" fill="white" stroke="black" pointer-events="none"/><path d="M 393.5 638 L 393.5 638 L 393.5 641.75 L 397.25 641.75 L 397.25 638 Z" fill="none" stroke="black" stroke-miterlimit="10" pointer-events="none"/><path d="M 393.5 627.5 L 393.5 627.5 L 393.5 636.5 L 397.25 636.5 L 397.25 627.5 Z" fill="none" stroke="black" stroke-miterlimit="10" pointer-events="none"/><g fill="black" font-family="Arial,Helvetica" text-anchor="middle" font-size="12px"><text x="326" y="627">Escolher filtro</text></g><ellipse cx="1529" cy="733" rx="17.5" ry="17.5" fill="#ffffff" stroke="black" pointer-events="none"/><ellipse cx="1529" cy="733" rx="14.4375" ry="14.4375" fill="#000000" stroke="black" pointer-events="none"/><path d="M 1346 733 L 1419 733 Q 1429 733 1439 733 L 1502.88 733" fill="none" stroke="black" stroke-miterlimit="10" pointer-events="none"/><path d="M 1509.88 733 L 1502.88 736.5 L 1502.88 729.5 Z" fill="black" stroke="black" stroke-miterlimit="10" pointer-events="none"/></g></svg>