<svg xmlns="http://www.w3.org/2000/svg" width="1863px" height="553px" xmlns:xlink="http://www.w3.org/1999/xlink" version="1.1" style="background-color: rgb(255, 255, 255);"><defs/><g transform="translate(0.5,0.5)"><ellipse cx="19" cy="131" rx="17.5" ry="17.5" fill="black" stroke="black" pointer-events="none"/><rect x="171" y="1" width="660" height="260" rx="13" ry="13" fill="white" stroke="black" pointer-events="none"/><g fill="black" font-family="Arial,Helvetica" font-size="12px"><text x="194" y="25">Realizar login</text></g><rect x="611" y="93.5" width="160" height="80" fill="gray" stroke="gray" transform="translate(2,3)" opacity="1"/><rect x="611" y="93.5" width="160" height="80" fill="white" stroke="black" pointer-events="none"/><ellipse cx="749" cy="152" rx="14" ry="14" fill="white" stroke="black" pointer-events="none"/><ellipse cx="749" cy="152" rx="11.03030303030303" ry="11.03030303030303" fill="none" stroke="black" pointer-events="none"/><path d="M 749 151.5 L 749.57 142.03 M 749 151.5 L 755.22 151.5 M 749 140.47 L 749 141.88 M 754.52 141.91 L 753.72 143.3 M 758.53 145.93 L 757.15 146.78 M 760.03 151.5 L 758.62 151.5 M 758.53 157.07 L 757.15 156.22 M 743.48 141.91 L 744.28 143.3 M 754.52 161.09 L 753.72 159.7 M 749 161.12 L 749 162.53 M 743.48 161.09 L 744.28 159.7 M 739.47 157.07 L 740.85 156.22 M 737.97 151.5 L 739.38 151.5 M 739.47 145.93 L 740.85 146.78" fill="none" stroke="black" stroke-miterlimit="10" pointer-events="none"/><g fill="black" font-family="Arial,Helvetica" text-anchor="middle" font-size="12px"><text x="691" y="137.5">Verificando usuário, aguarde</text></g><rect x="201" y="96" width="150" height="75" fill="gray" stroke="gray" transform="translate(2,3)" opacity="1"/><rect x="201" y="96" width="150" height="75" fill="white" stroke="black" pointer-events="none"/><path d="M 343.5 163.5 C 343.5 156.25 337.62 150.38 330.38 150.38 C 323.13 150.38 317.25 156.25 317.25 163.5 Z" fill="white" stroke="black" stroke-miterlimit="10" pointer-events="none"/><ellipse cx="330" cy="144" rx="6.5625" ry="6.5625" fill="white" stroke="black" pointer-events="none"/><path d="M 343.5 148.5 L 343.5 148.5 L 343.5 152.25 L 347.25 152.25 L 347.25 148.5 Z" fill="none" stroke="black" stroke-miterlimit="10" pointer-events="none"/><path d="M 343.5 138 L 343.5 138 L 343.5 147 L 347.25 147 L 347.25 138 Z" fill="none" stroke="black" stroke-miterlimit="10" pointer-events="none"/><g fill="black" font-family="Arial,Helvetica" text-anchor="middle" font-size="12px"><text x="276" y="137.5">Informar email e senha</text></g><path d="M 36 131.17 L 194.63 132.71" fill="none" stroke="#6482b9" stroke-miterlimit="10" pointer-events="none"/><path d="M 199.88 132.76 L 192.85 136.19 L 194.63 132.71 L 192.92 129.19 Z" fill="#6482b9" stroke="#6482b9" stroke-miterlimit="10" pointer-events="none"/><g fill="black" font-family="Arial,Helvetica" text-anchor="middle" font-size="11px"><text x="110.5" y="124.47">Acessar sistema</text></g><path d="M 691 93.5 L 691 61 Q 691 51 681 51 L 286 51 Q 276 51 276 61 L 276 87.88" fill="none" stroke="black" stroke-miterlimit="10" stroke-dasharray="3 3" pointer-events="none"/><path d="M 276 94.88 L 272.5 87.88 L 279.5 87.88 Z" fill="black" stroke="black" stroke-miterlimit="10" pointer-events="none"/><g fill="black" font-family="Arial,Helvetica" text-anchor="middle" font-size="12px"><text x="471.5" y="91.75">Erro de login</text></g><path d="M 475.56 38.9 L 472.5 38.9 L 472.5 26 L 492.5 26 L 492.5 38.9 L 478.42 38.9 L 473.32 44 Z" fill="white" stroke="black" stroke-miterlimit="10" pointer-events="none"/><path d="M 691 173.5 L 691 211 Q 691 221 681 221 L 286 221 Q 276 221 276 211 L 276 179.12" fill="none" stroke="black" stroke-miterlimit="10" pointer-events="none"/><path d="M 276 172.12 L 279.5 179.12 L 272.5 179.12 Z" fill="black" stroke="black" stroke-miterlimit="10" pointer-events="none"/><g fill="block" font-family="Arial,Helvetica" text-anchor="middle" font-size="12px"><text x="481.5" y="254.25">Cancelar</text></g><path d="M 472.5 196 L 478.33 196 L 482.5 201.33 L 486.67 196 L 492.5 196 L 485.42 205 L 492.5 214 L 486.67 214 L 482.5 208.67 L 478.33 214 L 472.5 214 L 479.17 205 Z" fill="white" stroke="black" stroke-miterlimit="10" pointer-events="none"/><path d="M 351 133.5 L 471 133.5 Q 481 133.5 491 133.5 L 602.88 133.5" fill="none" stroke="black" stroke-miterlimit="10" pointer-events="none"/><path d="M 609.88 133.5 L 602.88 137 L 602.88 130 Z" fill="black" stroke="black" stroke-miterlimit="10" pointer-events="none"/><g fill="black" font-family="Arial,Helvetica" text-anchor="middle" font-size="12px"><text x="481" y="128.5">acessar conta &lt;email, senha&gt;</text></g><rect x="591" y="361" width="660" height="190" rx="9.5" ry="9.5" fill="white" stroke="black" pointer-events="none"/><g fill="black" font-family="Arial,Helvetica" font-size="12px"><text x="614" y="385">Acessar tela inicial</text></g><rect x="641" y="403.5" width="150" height="75" fill="gray" stroke="gray" transform="translate(2,3)" opacity="1"/><rect x="641" y="403.5" width="150" height="75" fill="white" stroke="black" pointer-events="none"/><path d="M 783.5 471 C 783.5 463.75 777.62 457.88 770.38 457.88 C 763.13 457.88 757.25 463.75 757.25 471 Z" fill="white" stroke="black" stroke-miterlimit="10" pointer-events="none"/><ellipse cx="770" cy="451" rx="6.5625" ry="6.5625" fill="white" stroke="black" pointer-events="none"/><g fill="black" font-family="Arial,Helvetica" text-anchor="middle" font-size="12px"><text x="716" y="445">Visualizar tela inicial</text></g><path d="M 706 173.5 L 706 278.5 Q 706 288.5 706 298.5 L 706 395.38" fill="none" stroke="black" stroke-miterlimit="10" pointer-events="none"/><path d="M 706 402.38 L 702.5 395.38 L 709.5 395.38 Z" fill="black" stroke="black" stroke-miterlimit="10" pointer-events="none"/><g fill="black" font-family="Arial,Helvetica" text-anchor="middle" font-size="12px"><text x="706" y="301.5">Login efetuado com sucesso</text></g><path d="M 699.06 276.4 L 696 276.4 L 696 263.5 L 716 263.5 L 716 276.4 L 701.92 276.4 L 696.82 281.5 Z" fill="white" stroke="black" stroke-miterlimit="10" pointer-events="none"/><path d="M 699.06 276.4 L 696 276.4 L 696 263.5 L 716 263.5 L 716 276.4 L 701.92 276.4 L 696.82 281.5 Z" fill="white" stroke="black" stroke-miterlimit="10" pointer-events="none"/><rect x="1041" y="63.5" width="140" height="140" fill="gray" stroke="gray" stroke-width="1.4" transform="translate(2,3)" opacity="1"/><rect x="1041" y="63.5" width="140" height="140" fill="white" stroke="black" stroke-width="1.4" pointer-events="none"/><rect x="1041" y="63.5" width="140" height="16.8" fill="none" stroke="black" stroke-width="1.4" pointer-events="none"/><g fill="black" font-family="Arial,Helvetica" text-anchor="middle" font-size="12px"><text x="1111" y="77.5">Usuário</text><text x="1111" y="105.5">email</text><text x="1111" y="119.5">senha</text><text x="1111" y="133.5">nome</text><text x="1111" y="147.5">data de nascimento</text><text x="1111" y="161.5">cpf</text><text x="1111" y="175.5">endereço</text></g><rect x="1201" y="28.5" width="660" height="210" rx="10.5" ry="10.5" fill="white" stroke="black" pointer-events="none"/><g fill="black" font-family="Arial,Helvetica" font-size="12px"><text x="1224" y="52.5">Realizar logout</text></g><rect x="1236" y="73.5" width="150" height="75" fill="gray" stroke="gray" transform="translate(2,3)" opacity="1"/><rect x="1236" y="73.5" width="150" height="75" fill="white" stroke="black" pointer-events="none"/><path d="M 1378.5 141 C 1378.5 133.75 1372.62 127.88 1365.38 127.88 C 1358.13 127.88 1352.25 133.75 1352.25 141 Z" fill="white" stroke="black" stroke-miterlimit="10" pointer-events="none"/><ellipse cx="1365" cy="121" rx="6.5625" ry="6.5625" fill="white" stroke="black" pointer-events="none"/><path d="M 1378.5 126 L 1378.5 126 L 1378.5 129.75 L 1382.25 129.75 L 1382.25 126 Z" fill="none" stroke="black" stroke-miterlimit="10" pointer-events="none"/><path d="M 1378.5 115.5 L 1378.5 115.5 L 1378.5 124.5 L 1382.25 124.5 L 1382.25 115.5 Z" fill="none" stroke="black" stroke-miterlimit="10" pointer-events="none"/><g fill="black" font-family="Arial,Helvetica" text-anchor="middle" font-size="12px"><text x="1311" y="115">Sair do sistema</text></g><ellipse cx="1311" cy="199" rx="17.5" ry="17.5" fill="#ffffff" stroke="black" pointer-events="none"/><ellipse cx="1311" cy="199" rx="14.4375" ry="14.4375" fill="#000000" stroke="black" pointer-events="none"/><path d="M 1311 148.5 L 1311 156.63 Q 1311 164.75 1311 168.82 L 1311 172.88" fill="none" stroke="black" stroke-miterlimit="10" pointer-events="none"/><path d="M 1311 179.88 L 1307.5 172.88 L 1314.5 172.88 Z" fill="black" stroke="black" stroke-miterlimit="10" pointer-events="none"/><path d="M 1041 133.5 L 916 133.5 Q 906 133.5 896 133.5 L 779.12 133.5" fill="none" stroke="black" stroke-miterlimit="10" stroke-dasharray="3 3" pointer-events="none"/><path d="M 772.12 133.5 L 779.12 130 L 779.12 137 Z" fill="black" stroke="black" stroke-miterlimit="10" pointer-events="none"/><g fill="black" font-family="Arial,Helvetica" text-anchor="middle" font-size="12px"><text x="906" y="146.5">Consultar usuário</text><text x="906" y="160.5">[email, senha]</text></g><path d="M 896 111.5 C 896 107.5 911 107.5 911 111.5 L 911 125.5 C 911 129.5 896 129.5 896 125.5 Z" fill="white" stroke="black" stroke-miterlimit="10" pointer-events="none"/><path d="M 896 111.5 C 896 114.5 911 114.5 911 111.5 M 896 113 C 896 116 911 116 911 113 M 896 114.5 C 896 117.5 911 117.5 911 114.5" fill="none" stroke="black" stroke-miterlimit="10" pointer-events="none"/><path d="M 896 111.5 C 896 107.5 911 107.5 911 111.5 L 911 125.5 C 911 129.5 896 129.5 896 125.5 Z" fill="white" stroke="black" stroke-miterlimit="10" pointer-events="none"/><path d="M 896 111.5 C 896 114.5 911 114.5 911 111.5 M 896 113 C 896 116 911 116 911 113 M 896 114.5 C 896 117.5 911 117.5 911 114.5" fill="none" stroke="black" stroke-miterlimit="10" pointer-events="none"/></g></svg>