<svg xmlns="http://www.w3.org/2000/svg" width="883px" height="476px" xmlns:xlink="http://www.w3.org/1999/xlink" version="1.1" style="background-color: rgb(255, 255, 255);"><defs/><g transform="translate(0.5,0.5)"><rect x="381" y="1" width="500" height="300" rx="15" ry="15" fill="white" stroke="black" pointer-events="none"/><g fill="black" font-family="Arial,Helvetica" font-size="12px"><text x="404" y="25">Objetivo do Usuário</text></g><ellipse cx="19" cy="49" rx="17.5" ry="17.5" fill="#ffffff" stroke="black" pointer-events="none"/><ellipse cx="19" cy="49" rx="14.4375" ry="14.4375" fill="#000000" stroke="black" pointer-events="none"/><rect x="176" y="3.5" width="150" height="75" fill="gray" stroke="gray" transform="translate(2,3)" opacity="1"/><rect x="176" y="3.5" width="150" height="75" fill="white" stroke="black" pointer-events="none"/><path d="M 318.5 71 C 318.5 63.75 312.62 57.88 305.38 57.88 C 298.13 57.88 292.25 63.75 292.25 71 Z" fill="white" stroke="black" stroke-miterlimit="10" pointer-events="none"/><ellipse cx="305" cy="51" rx="6.5625" ry="6.5625" fill="white" stroke="black" pointer-events="none"/><g fill="black" font-family="Arial,Helvetica" text-anchor="middle" font-size="12px"><text x="251" y="45">Ação do Usuário</text></g><rect x="11" y="201" width="40" height="40" fill="black" stroke="black" pointer-events="none"/><rect x="181" y="181" width="140" height="140" fill="gray" stroke="gray" stroke-width="1.4" transform="translate(2,3)" opacity="1"/><rect x="181" y="181" width="140" height="140" fill="white" stroke="black" stroke-width="1.4" pointer-events="none"/><rect x="181" y="181" width="140" height="16.8" fill="none" stroke="black" stroke-width="1.4" pointer-events="none"/><g fill="black" font-family="Arial,Helvetica" text-anchor="middle" font-size="12px"><text x="251" y="195">Nome da Coleção</text></g><path d="M 251 181 L 251 84.87" fill="none" stroke="#6482b9" stroke-miterlimit="10" pointer-events="none"/><path d="M 251 79.62 L 254.5 86.62 L 251 84.87 L 247.5 86.62 Z" fill="#6482b9" stroke="#6482b9" stroke-miterlimit="10" pointer-events="none"/><path d="M 205.17 78.5 L 55.93 200.6" fill="none" stroke="#6482b9" stroke-miterlimit="10" pointer-events="none"/><path d="M 51.87 203.93 L 55.07 196.79 L 55.93 200.6 L 59.5 202.2 Z" fill="#6482b9" stroke="#6482b9" stroke-miterlimit="10" pointer-events="none"/><rect x="171" y="393.5" width="150" height="75" fill="gray" stroke="gray" transform="translate(2,3)" opacity="1"/><rect x="171" y="393.5" width="150" height="75" fill="white" stroke="black" pointer-events="none"/><path d="M 313.5 461 C 313.5 453.75 307.62 447.88 300.38 447.88 C 293.13 447.88 287.25 453.75 287.25 461 Z" fill="white" stroke="black" stroke-miterlimit="10" pointer-events="none"/><ellipse cx="300" cy="441" rx="6.5625" ry="6.5625" fill="white" stroke="black" pointer-events="none"/><path d="M 313.5 446 L 313.5 446 L 313.5 449.75 L 317.25 449.75 L 317.25 446 Z" fill="none" stroke="black" stroke-miterlimit="10" pointer-events="none"/><path d="M 313.5 435.5 L 313.5 435.5 L 313.5 444.5 L 317.25 444.5 L 317.25 435.5 Z" fill="none" stroke="black" stroke-miterlimit="10" pointer-events="none"/><g fill="black" font-family="Arial,Helvetica" text-anchor="middle" font-size="12px"><text x="246" y="435">Ação do Usuário</text></g><path d="M 247.04 393.5 L 248.88 327.37" fill="none" stroke="#6482b9" stroke-miterlimit="10" pointer-events="none"/><path d="M 249.02 322.12 L 252.33 329.21 L 248.88 327.37 L 245.33 329.02 Z" fill="#6482b9" stroke="#6482b9" stroke-miterlimit="10" pointer-events="none"/><path d="M 321 423.11 L 341 421 L 341 441 L 327.33 439.56" fill="none" stroke="#6482b9" stroke-miterlimit="10" pointer-events="none"/><path d="M 322.11 439.01 L 329.44 436.26 L 327.33 439.56 L 328.71 443.23 Z" fill="#6482b9" stroke="#6482b9" stroke-miterlimit="10" pointer-events="none"/></g></svg>