<svg xmlns="http://www.w3.org/2000/svg" width="1575px" height="1043px" xmlns:xlink="http://www.w3.org/1999/xlink" version="1.1" style="background-color: rgb(255, 255, 255);"><defs/><g transform="translate(0.5,0.5)"><ellipse cx="19" cy="149" rx="17.5" ry="17.5" fill="black" stroke="black" pointer-events="none"/><rect x="231" y="1" width="1180" height="1040" rx="52" ry="52" fill="white" stroke="black" pointer-events="none"/><g fill="black" font-family="Arial,Helvetica" font-size="12px"><text x="254" y="25">Listar itens</text></g><rect x="281" y="111" width="150" height="75" fill="gray" stroke="gray" transform="translate(2,3)" opacity="1"/><rect x="281" y="111" width="150" height="75" fill="white" stroke="black" pointer-events="none"/><path d="M 423.5 178.5 C 423.5 171.25 417.62 165.38 410.38 165.38 C 403.13 165.38 397.25 171.25 397.25 178.5 Z" fill="white" stroke="black" stroke-miterlimit="10" pointer-events="none"/><ellipse cx="410" cy="159" rx="6.5625" ry="6.5625" fill="white" stroke="black" pointer-events="none"/><path d="M 423.5 163.5 L 423.5 163.5 L 423.5 167.25 L 427.25 167.25 L 427.25 163.5 Z" fill="none" stroke="black" stroke-miterlimit="10" pointer-events="none"/><path d="M 423.5 153 L 423.5 153 L 423.5 162 L 427.25 162 L 427.25 153 Z" fill="none" stroke="black" stroke-miterlimit="10" pointer-events="none"/><g fill="black" font-family="Arial,Helvetica" text-anchor="middle" font-size="12px"><text x="356" y="152.5">Digitar termo de pesquisa</text></g><path d="M 36 148.5 L 149 148.5 Q 159 148.5 169 148.5 L 272.88 148.5" fill="none" stroke="black" stroke-miterlimit="10" pointer-events="none"/><path d="M 279.88 148.5 L 272.88 152 L 272.88 145 Z" fill="black" stroke="black" stroke-miterlimit="10" pointer-events="none"/><g fill="black" font-family="Arial,Helvetica" text-anchor="middle" font-size="12px"><text x="158.5" y="143.5">Acessar tela de pesquisa</text></g><rect x="611" y="111" width="150" height="75" fill="gray" stroke="gray" transform="translate(2,3)" opacity="1"/><rect x="611" y="111" width="150" height="75" fill="white" stroke="black" pointer-events="none"/><ellipse cx="740" cy="165" rx="13.125" ry="13.125" fill="white" stroke="black" pointer-events="none"/><ellipse cx="740" cy="165" rx="10.34090909090909" ry="10.34090909090909" fill="none" stroke="black" pointer-events="none"/><path d="M 740.38 165.38 L 740.91 156.49 M 740.38 165.38 L 746.21 165.38 M 740.38 155.03 L 740.38 156.36 M 745.55 156.39 L 744.8 157.69 M 749.31 160.15 L 748.01 160.95 M 750.72 165.38 L 749.39 165.38 M 749.31 170.6 L 748.01 169.8 M 735.2 156.39 L 735.95 157.69 M 745.55 174.36 L 744.8 173.06 M 740.38 174.39 L 740.38 175.72 M 735.2 174.36 L 735.95 173.06 M 731.44 170.6 L 732.74 169.8 M 730.03 165.38 L 731.36 165.38 M 731.44 160.15 L 732.74 160.95" fill="none" stroke="black" stroke-miterlimit="10" pointer-events="none"/><g fill="black" font-family="Arial,Helvetica" text-anchor="middle" font-size="12px"><text x="686" y="145.5">Buscando resultados,</text><text x="686" y="159.5">aguarde!</text></g><path d="M 431 148.5 L 511 148.5 Q 521 148.5 531 148.5 L 602.88 148.5" fill="none" stroke="black" stroke-miterlimit="10" pointer-events="none"/><path d="M 609.88 148.5 L 602.88 152 L 602.88 145 Z" fill="black" stroke="black" stroke-miterlimit="10" pointer-events="none"/><g fill="black" font-family="Arial,Helvetica" text-anchor="middle" font-size="12px"><text x="521" y="143.5">pesquisar &lt;nome&gt;</text></g><path d="M 686 111 L 686 71 Q 686 61 676 61 L 366 61 Q 356 61 356 71 L 356 102.88" fill="none" stroke="black" stroke-miterlimit="10" stroke-dasharray="3 3" pointer-events="none"/><path d="M 356 109.88 L 352.5 102.88 L 359.5 102.88 Z" fill="black" stroke="black" stroke-miterlimit="10" pointer-events="none"/><g fill="black" font-family="Arial,Helvetica" text-anchor="middle" font-size="12px"><text x="521" y="84">Nenhum resultado encontrado</text></g><path d="M 514.06 48.9 L 511 48.9 L 511 36 L 531 36 L 531 48.9 L 516.92 48.9 L 511.82 54 Z" fill="white" stroke="black" stroke-miterlimit="10" pointer-events="none"/><path d="M 686 186 L 686 211 Q 686 221 676 221 L 366 221 Q 356 221 356 211 L 356 194.12" fill="none" stroke="black" stroke-miterlimit="10" pointer-events="none"/><path d="M 356 187.12 L 359.5 194.12 L 352.5 194.12 Z" fill="black" stroke="black" stroke-miterlimit="10" pointer-events="none"/><g fill="block" font-family="Arial,Helvetica" text-anchor="middle" font-size="12px"><text x="521" y="244">Cancelar</text></g><path d="M 511 196 L 516.83 196 L 521 201.33 L 525.17 196 L 531 196 L 523.92 205 L 531 214 L 525.17 214 L 521 208.67 L 516.83 214 L 511 214 L 517.67 205 Z" fill="white" stroke="black" stroke-miterlimit="10" pointer-events="none"/><rect x="686" y="373.5" width="150" height="75" fill="gray" stroke="gray" transform="translate(2,3)" opacity="1"/><rect x="686" y="373.5" width="150" height="75" fill="white" stroke="black" pointer-events="none"/><path d="M 828.5 441 C 828.5 433.75 822.62 427.88 815.38 427.88 C 808.13 427.88 802.25 433.75 802.25 441 Z" fill="white" stroke="black" stroke-miterlimit="10" pointer-events="none"/><ellipse cx="815" cy="421" rx="6.5625" ry="6.5625" fill="white" stroke="black" pointer-events="none"/><g fill="black" font-family="Arial,Helvetica" text-anchor="middle" font-size="12px"><text x="761" y="415">Visualiza lista</text></g><path d="M 724 186 L 724 269.75 Q 724 279.75 724 289.75 L 724 365.38" fill="none" stroke="black" stroke-miterlimit="10" pointer-events="none"/><path d="M 724 372.38 L 720.5 365.38 L 727.5 365.38 Z" fill="black" stroke="black" stroke-miterlimit="10" pointer-events="none"/><g fill="black" font-family="Arial,Helvetica" text-anchor="middle" font-size="12px"><text x="871" y="263.75">Foram encontrados resultados correspondentes</text></g><path d="M 717.06 267.9 L 714 267.9 L 714 255 L 734 255 L 734 267.9 L 719.92 267.9 L 714.82 273 Z" fill="white" stroke="black" stroke-miterlimit="10" pointer-events="none"/><path d="M 717.06 267.9 L 714 267.9 L 714 255 L 734 255 L 734 267.9 L 719.92 267.9 L 714.82 273 Z" fill="white" stroke="black" stroke-miterlimit="10" pointer-events="none"/><rect x="1431" y="251" width="140" height="140" fill="gray" stroke="gray" stroke-width="1.4" transform="translate(2,3)" opacity="1"/><rect x="1431" y="251" width="140" height="140" fill="white" stroke="black" stroke-width="1.4" pointer-events="none"/><rect x="1431" y="251" width="140" height="16.8" fill="none" stroke="black" stroke-width="1.4" pointer-events="none"/><g fill="black" font-family="Arial,Helvetica" text-anchor="middle" font-size="12px"><text x="1501" y="265">item</text><text x="1501" y="279">id</text><text x="1501" y="293">nome</text><text x="1501" y="307">descricao</text><text x="1501" y="321">data</text></g><path d="M 1521 251 L 1521 158.5 Q 1521 148.5 1511 148.5 L 769.12 148.5" fill="none" stroke="black" stroke-miterlimit="10" stroke-dasharray="3 3" pointer-events="none"/><path d="M 762.12 148.5 L 769.12 145 L 769.12 152 Z" fill="black" stroke="black" stroke-miterlimit="10" pointer-events="none"/><g fill="black" font-family="Arial,Helvetica" text-anchor="middle" font-size="12px"><text x="1191" y="173.75">buscar item [nome]</text></g><path d="M 1182.5 126.5 C 1182.5 122.5 1197.5 122.5 1197.5 126.5 L 1197.5 140.5 C 1197.5 144.5 1182.5 144.5 1182.5 140.5 Z" fill="white" stroke="black" stroke-miterlimit="10" pointer-events="none"/><path d="M 1182.5 126.5 C 1182.5 129.5 1197.5 129.5 1197.5 126.5 M 1182.5 128 C 1182.5 131 1197.5 131 1197.5 128 M 1182.5 129.5 C 1182.5 132.5 1197.5 132.5 1197.5 129.5" fill="none" stroke="black" stroke-miterlimit="10" pointer-events="none"/><rect x="271" y="533.5" width="150" height="75" fill="gray" stroke="gray" transform="translate(2,3)" opacity="1"/><rect x="271" y="533.5" width="150" height="75" fill="white" stroke="black" pointer-events="none"/><path d="M 413.5 601 C 413.5 593.75 407.62 587.88 400.38 587.88 C 393.13 587.88 387.25 593.75 387.25 601 Z" fill="white" stroke="black" stroke-miterlimit="10" pointer-events="none"/><ellipse cx="400" cy="581" rx="6.5625" ry="6.5625" fill="white" stroke="black" pointer-events="none"/><path d="M 413.5 586 L 413.5 586 L 413.5 589.75 L 417.25 589.75 L 417.25 586 Z" fill="none" stroke="black" stroke-miterlimit="10" pointer-events="none"/><path d="M 413.5 575.5 L 413.5 575.5 L 413.5 584.5 L 417.25 584.5 L 417.25 575.5 Z" fill="none" stroke="black" stroke-miterlimit="10" pointer-events="none"/><g fill="black" font-family="Arial,Helvetica" text-anchor="middle" font-size="12px"><text x="346" y="575">Selecionar item da lista</text></g><path d="M 686 411 L 361 411 Q 351 411 351 421 L 351 525.38" fill="none" stroke="black" stroke-miterlimit="10" pointer-events="none"/><path d="M 351 532.38 L 347.5 525.38 L 354.5 525.38 Z" fill="black" stroke="black" stroke-miterlimit="10" pointer-events="none"/><rect x="836" y="533.5" width="150" height="75" fill="gray" stroke="gray" transform="translate(2,3)" opacity="1"/><rect x="836" y="533.5" width="150" height="75" fill="white" stroke="black" pointer-events="none"/><path d="M 952.25 601 L 965.38 574.75 L 978.5 601 Z" fill="none" stroke="black" stroke-miterlimit="10" pointer-events="none"/><path d="M 963.5 593.5 L 963.5 593.5 L 963.5 597.25 L 967.25 597.25 L 967.25 593.5 Z" fill="none" stroke="black" stroke-miterlimit="10" pointer-events="none"/><path d="M 963.5 583 L 963.5 583 L 963.5 592 L 967.25 592 L 967.25 583 Z" fill="none" stroke="black" stroke-miterlimit="10" pointer-events="none"/><g fill="black" font-family="Arial,Helvetica" text-anchor="middle" font-size="12px"><text x="911" y="568">Tem certeza que deseja </text><text x="911" y="582">excluir este item?</text></g><path d="M 911 608.5 L 911 681 Q 911 691 901 691 L 356 691 Q 346 691 346 681 L 346 616.62" fill="none" stroke="black" stroke-miterlimit="10" pointer-events="none"/><path d="M 346 609.62 L 349.5 616.62 L 342.5 616.62 Z" fill="black" stroke="black" stroke-miterlimit="10" pointer-events="none"/><g fill="block" font-family="Arial,Helvetica" text-anchor="middle" font-size="12px"><text x="633.5" y="654.5">Não</text></g><path d="M 618.5 666 L 624.33 666 L 628.5 671.33 L 632.67 666 L 638.5 666 L 631.42 675 L 638.5 684 L 632.67 684 L 628.5 678.67 L 624.33 684 L 618.5 684 L 625.17 675 Z" fill="white" stroke="black" stroke-miterlimit="10" pointer-events="none"/><path d="M 618.5 666 L 624.33 666 L 628.5 671.33 L 632.67 666 L 638.5 666 L 631.42 675 L 638.5 684 L 632.67 684 L 628.5 678.67 L 624.33 684 L 618.5 684 L 625.17 675 Z" fill="white" stroke="black" stroke-miterlimit="10" pointer-events="none"/><path d="M 421 571 L 619 571 Q 629 571 639 571 L 827.88 571" fill="none" stroke="black" stroke-miterlimit="10" pointer-events="none"/><path d="M 834.88 571 L 827.88 574.5 L 827.88 567.5 Z" fill="black" stroke="black" stroke-miterlimit="10" pointer-events="none"/><g fill="black" font-family="Arial,Helvetica" text-anchor="middle" font-size="12px"><text x="628.5" y="566">clicar em excluir &lt;nome&gt;</text></g><rect x="841" y="783.5" width="150" height="75" fill="gray" stroke="gray" transform="translate(2,3)" opacity="1"/><rect x="841" y="783.5" width="150" height="75" fill="white" stroke="black" pointer-events="none"/><ellipse cx="970" cy="838" rx="13.125" ry="13.125" fill="white" stroke="black" pointer-events="none"/><ellipse cx="970" cy="838" rx="10.34090909090909" ry="10.34090909090909" fill="none" stroke="black" pointer-events="none"/><path d="M 970.38 837.88 L 970.91 828.99 M 970.38 837.88 L 976.21 837.88 M 970.38 827.53 L 970.38 828.86 M 975.55 828.89 L 974.8 830.19 M 979.31 832.65 L 978.01 833.45 M 980.72 837.88 L 979.39 837.88 M 979.31 843.1 L 978.01 842.3 M 965.2 828.89 L 965.95 830.19 M 975.55 846.86 L 974.8 845.56 M 970.38 846.89 L 970.38 848.22 M 965.2 846.86 L 965.95 845.56 M 961.44 843.1 L 962.74 842.3 M 960.03 837.88 L 961.36 837.88 M 961.44 832.65 L 962.74 833.45" fill="none" stroke="black" stroke-miterlimit="10" pointer-events="none"/><g fill="black" font-family="Arial,Helvetica" text-anchor="middle" font-size="12px"><text x="916" y="825">Excluindo item, aguarde!</text></g><path d="M 931 608.5 L 931 743.5 Q 931 753.5 931 763.5 L 931 775.38" fill="none" stroke="black" stroke-miterlimit="10" pointer-events="none"/><path d="M 931 782.38 L 927.5 775.38 L 934.5 775.38 Z" fill="black" stroke="black" stroke-miterlimit="10" pointer-events="none"/><g fill="black" font-family="Arial,Helvetica" text-anchor="middle" font-size="12px"><text x="951" y="691">Sim</text></g><path d="M 1521 391 L 1521 811 Q 1521 821 1511 821 L 999.12 821" fill="none" stroke="black" stroke-miterlimit="10" stroke-dasharray="3 3" pointer-events="none"/><path d="M 992.12 821 L 999.12 817.5 L 999.12 824.5 Z" fill="black" stroke="black" stroke-miterlimit="10" pointer-events="none"/><g fill="black" font-family="Arial,Helvetica" text-anchor="middle" font-size="12px"><text x="1471" y="844">Remover item [nome]</text></g><path d="M 1461 799 C 1461 795 1476 795 1476 799 L 1476 813 C 1476 817 1461 817 1461 813 Z" fill="white" stroke="black" stroke-miterlimit="10" pointer-events="none"/><path d="M 1461 799 C 1461 802 1476 802 1476 799 M 1461 800.5 C 1461 803.5 1476 803.5 1476 800.5 M 1461 802 C 1461 805 1476 805 1476 802" fill="none" stroke="black" stroke-miterlimit="10" pointer-events="none"/><path d="M 1461 799 C 1461 795 1476 795 1476 799 L 1476 813 C 1476 817 1461 817 1461 813 Z" fill="white" stroke="black" stroke-miterlimit="10" pointer-events="none"/><path d="M 1461 799 C 1461 802 1476 802 1476 799 M 1461 800.5 C 1461 803.5 1476 803.5 1476 800.5 M 1461 802 C 1461 805 1476 805 1476 802" fill="none" stroke="black" stroke-miterlimit="10" pointer-events="none"/><rect x="861" y="953.5" width="150" height="75" fill="gray" stroke="gray" transform="translate(2,3)" opacity="1"/><rect x="861" y="953.5" width="150" height="75" fill="white" stroke="black" pointer-events="none"/><path d="M 1003.5 1021 C 1003.5 1013.75 997.62 1007.88 990.38 1007.88 C 983.13 1007.88 977.25 1013.75 977.25 1021 Z" fill="white" stroke="black" stroke-miterlimit="10" pointer-events="none"/><ellipse cx="990" cy="1001" rx="6.5625" ry="6.5625" fill="white" stroke="black" pointer-events="none"/><g fill="black" font-family="Arial,Helvetica" text-anchor="middle" font-size="12px"><text x="936" y="988">Visualiza lista </text><text x="936" y="1002">após exclusão</text></g><path d="M 916 858.5 L 916 894 Q 916 904 916 914 L 916 945.38" fill="none" stroke="black" stroke-miterlimit="10" pointer-events="none"/><path d="M 916 952.38 L 912.5 945.38 L 919.5 945.38 Z" fill="black" stroke="black" stroke-miterlimit="10" pointer-events="none"/><g fill="black" font-family="Arial,Helvetica" text-anchor="middle" font-size="12px"><text x="1041" y="914">O item foi exlcluído com sucesso</text></g><path d="M 909.06 894.4 L 906 894.4 L 906 881.5 L 926 881.5 L 926 894.4 L 911.92 894.4 L 906.82 899.5 Z" fill="white" stroke="black" stroke-miterlimit="10" pointer-events="none"/><path d="M 909.06 894.4 L 906 894.4 L 906 881.5 L 926 881.5 L 926 894.4 L 911.92 894.4 L 906.82 899.5 Z" fill="white" stroke="black" stroke-miterlimit="10" pointer-events="none"/><path d="M 909.06 894.4 L 906 894.4 L 906 881.5 L 926 881.5 L 926 894.4 L 911.92 894.4 L 906.82 899.5 Z" fill="white" stroke="black" stroke-miterlimit="10" pointer-events="none"/><path d="M 909.06 894.4 L 906 894.4 L 906 881.5 L 926 881.5 L 926 894.4 L 911.92 894.4 L 906.82 899.5 Z" fill="white" stroke="black" stroke-miterlimit="10" pointer-events="none"/><path d="M 909.06 894.4 L 906 894.4 L 906 881.5 L 926 881.5 L 926 894.4 L 911.92 894.4 L 906.82 899.5 Z" fill="white" stroke="black" stroke-miterlimit="10" pointer-events="none"/><path d="M 909.06 894.4 L 906 894.4 L 906 881.5 L 926 881.5 L 926 894.4 L 911.92 894.4 L 906.82 899.5 Z" fill="white" stroke="black" stroke-miterlimit="10" pointer-events="none"/><path d="M 909.06 894.4 L 906 894.4 L 906 881.5 L 926 881.5 L 926 894.4 L 911.92 894.4 L 906.82 899.5 Z" fill="white" stroke="black" stroke-miterlimit="10" pointer-events="none"/><path d="M 841 821 L 321 821 Q 311 821 311 811 L 311 616.62" fill="none" stroke="black" stroke-miterlimit="10" stroke-dasharray="3 3" pointer-events="none"/><path d="M 311 609.62 L 314.5 616.62 L 307.5 616.62 Z" fill="black" stroke="black" stroke-miterlimit="10" pointer-events="none"/><g fill="black" font-family="Arial,Helvetica" text-anchor="middle" font-size="12px"><text x="476" y="833.75">Não foi possível excluir o item, tente novamente!</text></g><path d="M 463.06 808.9 L 460 808.9 L 460 796 L 480 796 L 480 808.9 L 465.92 808.9 L 460.82 814 Z" fill="white" stroke="black" stroke-miterlimit="10" pointer-events="none"/><path d="M 463.06 808.9 L 460 808.9 L 460 796 L 480 796 L 480 808.9 L 465.92 808.9 L 460.82 814 Z" fill="white" stroke="black" stroke-miterlimit="10" pointer-events="none"/><path d="M 463.06 808.9 L 460 808.9 L 460 796 L 480 796 L 480 808.9 L 465.92 808.9 L 460.82 814 Z" fill="white" stroke="black" stroke-miterlimit="10" pointer-events="none"/><path d="M 463.06 808.9 L 460 808.9 L 460 796 L 480 796 L 480 808.9 L 465.92 808.9 L 460.82 814 Z" fill="white" stroke="black" stroke-miterlimit="10" pointer-events="none"/><path d="M 463.06 808.9 L 460 808.9 L 460 796 L 480 796 L 480 808.9 L 465.92 808.9 L 460.82 814 Z" fill="white" stroke="black" stroke-miterlimit="10" pointer-events="none"/><path d="M 463.06 808.9 L 460 808.9 L 460 796 L 480 796 L 480 808.9 L 465.92 808.9 L 460.82 814 Z" fill="white" stroke="black" stroke-miterlimit="10" pointer-events="none"/><path d="M 463.06 808.9 L 460 808.9 L 460 796 L 480 796 L 480 808.9 L 465.92 808.9 L 460.82 814 Z" fill="white" stroke="black" stroke-miterlimit="10" pointer-events="none"/><path d="M 463.06 808.9 L 460 808.9 L 460 796 L 480 796 L 480 808.9 L 465.92 808.9 L 460.82 814 Z" fill="white" stroke="black" stroke-miterlimit="10" pointer-events="none"/><path d="M 463.06 808.9 L 460 808.9 L 460 796 L 480 796 L 480 808.9 L 465.92 808.9 L 460.82 814 Z" fill="white" stroke="black" stroke-miterlimit="10" pointer-events="none"/><ellipse cx="1309" cy="991" rx="17.5" ry="17.5" fill="#ffffff" stroke="black" pointer-events="none"/><ellipse cx="1309" cy="991" rx="14.4375" ry="14.4375" fill="#000000" stroke="black" pointer-events="none"/><path d="M 1011 981 L 1131 981 Q 1141 981 1151 981 L 1282.88 981" fill="none" stroke="black" stroke-miterlimit="10" pointer-events="none"/><path d="M 1289.88 981 L 1282.88 984.5 L 1282.88 977.5 Z" fill="black" stroke="black" stroke-miterlimit="10" pointer-events="none"/></g></svg>