<svg xmlns="http://www.w3.org/2000/svg" width="1616px" height="883px" xmlns:xlink="http://www.w3.org/1999/xlink" version="1.1" style="background-color: rgb(255, 255, 255);"><defs/><g transform="translate(0.5,0.5)"><ellipse cx="19" cy="191" rx="17.5" ry="17.5" fill="black" stroke="black" pointer-events="none"/><rect x="259" y="1" width="910" height="320" rx="16" ry="16" fill="white" stroke="black" pointer-events="none"/><g fill="black" font-family="Arial,Helvetica" font-size="12px"><text x="282" y="25">Fazer cadastro no sistema</text></g><rect x="289" y="133.5" width="230" height="115" fill="gray" stroke="gray" transform="translate(2,3)" opacity="1"/><rect x="289" y="133.5" width="230" height="115" fill="white" stroke="black" pointer-events="none"/><path d="M 507.5 237 C 507.5 225.89 498.49 216.88 487.38 216.88 C 476.26 216.88 467.25 225.89 467.25 237 Z" fill="white" stroke="black" stroke-miterlimit="10" pointer-events="none"/><ellipse cx="487" cy="207" rx="10.0625" ry="10.0625" fill="white" stroke="black" pointer-events="none"/><path d="M 507.5 214 L 507.5 214 L 507.5 219.75 L 513.25 219.75 L 513.25 214 Z" fill="none" stroke="black" stroke-miterlimit="10" pointer-events="none"/><path d="M 507.5 197.9 L 507.5 197.9 L 507.5 211.7 L 513.25 211.7 L 513.25 197.9 Z" fill="none" stroke="black" stroke-miterlimit="10" pointer-events="none"/><g fill="black" font-family="Arial,Helvetica" text-anchor="middle" font-size="12px"><text x="404" y="188">Informar nome completo, email, senha e</text><text x="404" y="202">confirmação da senha</text></g><rect x="769" y="153.5" width="150" height="75" fill="gray" stroke="gray" transform="translate(2,3)" opacity="1"/><rect x="769" y="153.5" width="150" height="75" fill="white" stroke="black" pointer-events="none"/><ellipse cx="898" cy="208" rx="13.125" ry="13.125" fill="white" stroke="black" pointer-events="none"/><ellipse cx="898" cy="208" rx="10.34090909090909" ry="10.34090909090909" fill="none" stroke="black" pointer-events="none"/><path d="M 898.38 207.88 L 898.91 198.99 M 898.38 207.88 L 904.21 207.88 M 898.38 197.53 L 898.38 198.86 M 903.55 198.89 L 902.8 200.19 M 907.31 202.65 L 906.01 203.45 M 908.72 207.88 L 907.39 207.88 M 907.31 213.1 L 906.01 212.3 M 893.2 198.89 L 893.95 200.19 M 903.55 216.86 L 902.8 215.56 M 898.38 216.89 L 898.38 218.22 M 893.2 216.86 L 893.95 215.56 M 889.44 213.1 L 890.74 212.3 M 888.03 207.88 L 889.36 207.88 M 889.44 202.65 L 890.74 203.45" fill="none" stroke="black" stroke-miterlimit="10" pointer-events="none"/><g fill="black" font-family="Arial,Helvetica" text-anchor="middle" font-size="12px"><text x="844" y="188">Verificando se as senhas</text><text x="844" y="202">são iguais</text></g><path d="M 844 153.5 L 844 91 Q 844 81 834 81 L 414 81 Q 404 81 404 91 L 404 125.38" fill="none" stroke="black" stroke-miterlimit="10" stroke-dasharray="3 3" pointer-events="none"/><path d="M 404 132.38 L 400.5 125.38 L 407.5 125.38 Z" fill="black" stroke="black" stroke-miterlimit="10" pointer-events="none"/><g fill="black" font-family="Arial,Helvetica" text-anchor="middle" font-size="12px"><text x="639" y="104.5">As senhas não condizem</text></g><path d="M 626.56 68.9 L 623.5 68.9 L 623.5 56 L 643.5 56 L 643.5 68.9 L 629.42 68.9 L 624.32 74 Z" fill="white" stroke="black" stroke-miterlimit="10" pointer-events="none"/><path d="M 626.56 68.9 L 623.5 68.9 L 623.5 56 L 643.5 56 L 643.5 68.9 L 629.42 68.9 L 624.32 74 Z" fill="white" stroke="black" stroke-miterlimit="10" pointer-events="none"/><rect x="1199" y="126" width="140" height="130" fill="gray" stroke="gray" stroke-width="1.3" transform="translate(2,3)" opacity="1"/><rect x="1199" y="126" width="140" height="130" fill="white" stroke="black" stroke-width="1.3" pointer-events="none"/><rect x="1199" y="126" width="140" height="15.6" fill="none" stroke="black" stroke-width="1.3" pointer-events="none"/><g fill="black" font-family="Arial,Helvetica" text-anchor="middle" font-size="12px"><text x="1269" y="140">Usuário</text><text x="1269" y="168">nome_completo</text><text x="1269" y="182">email</text><text x="1269" y="196">senha</text><text x="1269" y="210">confirmacao_senha</text></g><path d="M 1199 191 L 1069 191 Q 1059 191 1049 191 L 927.12 191" fill="none" stroke="black" stroke-miterlimit="10" stroke-dasharray="3 3" pointer-events="none"/><path d="M 920.12 191 L 927.12 187.5 L 927.12 194.5 Z" fill="black" stroke="black" stroke-miterlimit="10" pointer-events="none"/><g fill="black" font-family="Arial,Helvetica" text-anchor="middle" font-size="12px"><text x="1059" y="214">Consultar se as senhas são iguais</text><text x="1059" y="228">[senha, confirmacao_senha]</text></g><path d="M 1049 169 C 1049 165 1064 165 1064 169 L 1064 183 C 1064 187 1049 187 1049 183 Z" fill="white" stroke="black" stroke-miterlimit="10" pointer-events="none"/><path d="M 1049 169 C 1049 172 1064 172 1064 169 M 1049 170.5 C 1049 173.5 1064 173.5 1064 170.5 M 1049 172 C 1049 175 1064 175 1064 172" fill="none" stroke="black" stroke-miterlimit="10" pointer-events="none"/><rect x="629" y="491" width="910" height="390" rx="19.5" ry="19.5" fill="white" stroke="black" pointer-events="none"/><g fill="black" font-family="Arial,Helvetica" font-size="12px"><text x="652" y="515">Visualizar página inicial</text></g><rect x="749" y="603.5" width="150" height="75" fill="gray" stroke="gray" transform="translate(2,3)" opacity="1"/><rect x="749" y="603.5" width="150" height="75" fill="white" stroke="black" pointer-events="none"/><path d="M 891.5 671 C 891.5 663.75 885.62 657.88 878.38 657.88 C 871.13 657.88 865.25 663.75 865.25 671 Z" fill="white" stroke="black" stroke-miterlimit="10" pointer-events="none"/><ellipse cx="878" cy="651" rx="6.5625" ry="6.5625" fill="white" stroke="black" pointer-events="none"/><path d="M 891.5 656 L 891.5 656 L 891.5 659.75 L 895.25 659.75 L 895.25 656 Z" fill="none" stroke="black" stroke-miterlimit="10" pointer-events="none"/><path d="M 891.5 645.5 L 891.5 645.5 L 891.5 654.5 L 895.25 654.5 L 895.25 645.5 Z" fill="none" stroke="black" stroke-miterlimit="10" pointer-events="none"/><g fill="black" font-family="Arial,Helvetica" text-anchor="middle" font-size="12px"><text x="824" y="645">Informar email e senha</text></g><path d="M 799 228.5 L 799 421 Q 799 431 799 441 L 799 595.38" fill="none" stroke="black" stroke-miterlimit="10" pointer-events="none"/><path d="M 799 602.38 L 795.5 595.38 L 802.5 595.38 Z" fill="black" stroke="black" stroke-miterlimit="10" pointer-events="none"/><g fill="black" font-family="Arial,Helvetica" text-anchor="middle" font-size="12px"><text x="974" y="414">Cadastro realizado com sucesso. Redirecionando para login.</text></g><path d="M 792.06 404.4 L 789 404.4 L 789 391.5 L 809 391.5 L 809 404.4 L 794.92 404.4 L 789.82 409.5 Z" fill="white" stroke="black" stroke-miterlimit="10" pointer-events="none"/><path d="M 792.06 404.4 L 789 404.4 L 789 391.5 L 809 391.5 L 809 404.4 L 794.92 404.4 L 789.82 409.5 Z" fill="white" stroke="black" stroke-miterlimit="10" pointer-events="none"/><path d="M 792.06 404.4 L 789 404.4 L 789 391.5 L 809 391.5 L 809 404.4 L 794.92 404.4 L 789.82 409.5 Z" fill="white" stroke="black" stroke-miterlimit="10" pointer-events="none"/><path d="M 792.06 404.4 L 789 404.4 L 789 391.5 L 809 391.5 L 809 404.4 L 794.92 404.4 L 789.82 409.5 Z" fill="white" stroke="black" stroke-miterlimit="10" pointer-events="none"/><path d="M 792.06 404.4 L 789 404.4 L 789 391.5 L 809 391.5 L 809 404.4 L 794.92 404.4 L 789.82 409.5 Z" fill="white" stroke="black" stroke-miterlimit="10" pointer-events="none"/><rect x="1119" y="601" width="160" height="80" fill="gray" stroke="gray" transform="translate(2,3)" opacity="1"/><rect x="1119" y="601" width="160" height="80" fill="white" stroke="black" pointer-events="none"/><ellipse cx="1257" cy="659" rx="14" ry="14" fill="white" stroke="black" pointer-events="none"/><ellipse cx="1257" cy="659" rx="11.03030303030303" ry="11.03030303030303" fill="none" stroke="black" pointer-events="none"/><path d="M 1257 659 L 1257.57 649.53 M 1257 659 L 1263.22 659 M 1257 647.97 L 1257 649.38 M 1262.52 649.41 L 1261.72 650.8 M 1266.53 653.43 L 1265.15 654.28 M 1268.03 659 L 1266.62 659 M 1266.53 664.57 L 1265.15 663.72 M 1251.48 649.41 L 1252.28 650.8 M 1262.52 668.59 L 1261.72 667.2 M 1257 668.62 L 1257 670.03 M 1251.48 668.59 L 1252.28 667.2 M 1247.47 664.57 L 1248.85 663.72 M 1245.97 659 L 1247.38 659 M 1247.47 653.43 L 1248.85 654.28" fill="none" stroke="black" stroke-miterlimit="10" pointer-events="none"/><g fill="black" font-family="Arial,Helvetica" text-anchor="middle" font-size="12px"><text x="1199" y="645">Realizando login, aguarde.</text></g><path d="M 519 191 L 634 191 Q 644 191 654 191 L 760.88 191" fill="none" stroke="black" stroke-miterlimit="10" pointer-events="none"/><path d="M 767.88 191 L 760.88 194.5 L 760.88 187.5 Z" fill="black" stroke="black" stroke-miterlimit="10" pointer-events="none"/><g fill="black" font-family="Arial,Helvetica" text-anchor="middle" font-size="12px"><text x="644" y="186">Clicar no botão "Cadastrar"</text></g><path d="M 899 641 L 967 641 Q 977 641 987 641 L 1110.88 641" fill="none" stroke="black" stroke-miterlimit="10" pointer-events="none"/><path d="M 1117.88 641 L 1110.88 644.5 L 1110.88 637.5 Z" fill="black" stroke="black" stroke-miterlimit="10" pointer-events="none"/><g fill="black" font-family="Arial,Helvetica" text-anchor="middle" font-size="12px"><text x="1009" y="636">Acessar conta &lt;email, senha&gt;</text></g><path d="M 1199 601 L 1199 561 Q 1199 551 1189 551 L 834 551 Q 824 551 824 561 L 824 595.38" fill="none" stroke="black" stroke-miterlimit="10" stroke-dasharray="3 3" pointer-events="none"/><path d="M 824 602.38 L 820.5 595.38 L 827.5 595.38 Z" fill="black" stroke="black" stroke-miterlimit="10" pointer-events="none"/><g fill="black" font-family="Arial,Helvetica" text-anchor="middle" font-size="12px"><text x="1009.5" y="584.25">Email ou senha incorretos</text></g><path d="M 1003.06 538.9 L 1000 538.9 L 1000 526 L 1020 526 L 1020 538.9 L 1005.92 538.9 L 1000.82 544 Z" fill="white" stroke="black" stroke-miterlimit="10" pointer-events="none"/><path d="M 1003.06 538.9 L 1000 538.9 L 1000 526 L 1020 526 L 1020 538.9 L 1005.92 538.9 L 1000.82 544 Z" fill="white" stroke="black" stroke-miterlimit="10" pointer-events="none"/><path d="M 1003.06 538.9 L 1000 538.9 L 1000 526 L 1020 526 L 1020 538.9 L 1005.92 538.9 L 1000.82 544 Z" fill="white" stroke="black" stroke-miterlimit="10" pointer-events="none"/><path d="M 1003.06 538.9 L 1000 538.9 L 1000 526 L 1020 526 L 1020 538.9 L 1005.92 538.9 L 1000.82 544 Z" fill="white" stroke="black" stroke-miterlimit="10" pointer-events="none"/><path d="M 1003.06 538.9 L 1000 538.9 L 1000 526 L 1020 526 L 1020 538.9 L 1005.92 538.9 L 1000.82 544 Z" fill="white" stroke="black" stroke-miterlimit="10" pointer-events="none"/><path d="M 1003.06 538.9 L 1000 538.9 L 1000 526 L 1020 526 L 1020 538.9 L 1005.92 538.9 L 1000.82 544 Z" fill="white" stroke="black" stroke-miterlimit="10" pointer-events="none"/><path d="M 1003.06 538.9 L 1000 538.9 L 1000 526 L 1020 526 L 1020 538.9 L 1005.92 538.9 L 1000.82 544 Z" fill="white" stroke="black" stroke-miterlimit="10" pointer-events="none"/><rect x="1149" y="781" width="160" height="80" fill="gray" stroke="gray" transform="translate(2,3)" opacity="1"/><rect x="1149" y="781" width="160" height="80" fill="white" stroke="black" pointer-events="none"/><path d="M 1301 853 C 1301 845.27 1294.73 839 1287 839 C 1279.27 839 1273 845.27 1273 853 Z" fill="white" stroke="black" stroke-miterlimit="10" pointer-events="none"/><ellipse cx="1287" cy="832" rx="7.000000000000001" ry="7.000000000000001" fill="white" stroke="black" pointer-events="none"/><g fill="black" font-family="Arial,Helvetica" text-anchor="middle" font-size="12px"><text x="1229" y="825">Visualiza página inicial</text></g><path d="M 1214 681 L 1214 721 Q 1214 731 1214 741 L 1214 772.88" fill="none" stroke="black" stroke-miterlimit="10" pointer-events="none"/><path d="M 1214 779.88 L 1210.5 772.88 L 1217.5 772.88 Z" fill="black" stroke="black" stroke-miterlimit="10" pointer-events="none"/><g fill="black" font-family="Arial,Helvetica" text-anchor="middle" font-size="12px"><text x="1319" y="719">Login realizado com sucesso</text></g><path d="M 1207.06 718.9 L 1204 718.9 L 1204 706 L 1224 706 L 1224 718.9 L 1209.92 718.9 L 1204.82 724 Z" fill="white" stroke="black" stroke-miterlimit="10" pointer-events="none"/><path d="M 1207.06 718.9 L 1204 718.9 L 1204 706 L 1224 706 L 1224 718.9 L 1209.92 718.9 L 1204.82 724 Z" fill="white" stroke="black" stroke-miterlimit="10" pointer-events="none"/><path d="M 1207.06 718.9 L 1204 718.9 L 1204 706 L 1224 706 L 1224 718.9 L 1209.92 718.9 L 1204.82 724 Z" fill="white" stroke="black" stroke-miterlimit="10" pointer-events="none"/><path d="M 1207.06 718.9 L 1204 718.9 L 1204 706 L 1224 706 L 1224 718.9 L 1209.92 718.9 L 1204.82 724 Z" fill="white" stroke="black" stroke-miterlimit="10" pointer-events="none"/><path d="M 1207.06 718.9 L 1204 718.9 L 1204 706 L 1224 706 L 1224 718.9 L 1209.92 718.9 L 1204.82 724 Z" fill="white" stroke="black" stroke-miterlimit="10" pointer-events="none"/><path d="M 1207.06 718.9 L 1204 718.9 L 1204 706 L 1224 706 L 1224 718.9 L 1209.92 718.9 L 1204.82 724 Z" fill="white" stroke="black" stroke-miterlimit="10" pointer-events="none"/><path d="M 1207.06 718.9 L 1204 718.9 L 1204 706 L 1224 706 L 1224 718.9 L 1209.92 718.9 L 1204.82 724 Z" fill="white" stroke="black" stroke-miterlimit="10" pointer-events="none"/><path d="M 1207.06 718.9 L 1204 718.9 L 1204 706 L 1224 706 L 1224 718.9 L 1209.92 718.9 L 1204.82 724 Z" fill="white" stroke="black" stroke-miterlimit="10" pointer-events="none"/><path d="M 1207.06 718.9 L 1204 718.9 L 1204 706 L 1224 706 L 1224 718.9 L 1209.92 718.9 L 1204.82 724 Z" fill="white" stroke="black" stroke-miterlimit="10" pointer-events="none"/><path d="M 36.5 191 L 153 191 Q 163 191 173 191 L 280.88 191" fill="none" stroke="black" stroke-miterlimit="10" pointer-events="none"/><path d="M 287.88 191 L 280.88 194.5 L 280.88 187.5 Z" fill="black" stroke="black" stroke-miterlimit="10" pointer-events="none"/><g fill="black" font-family="Arial,Helvetica" text-anchor="middle" font-size="12px"><text x="162.75" y="186">Fazer cadastro na aplicação</text></g><path d="M 1239 256 L 1239 418.5 Q 1239 428.5 1239 438.5 L 1239 592.88" fill="none" stroke="black" stroke-miterlimit="10" stroke-dasharray="3 3" pointer-events="none"/><path d="M 1239 599.88 L 1235.5 592.88 L 1242.5 592.88 Z" fill="black" stroke="black" stroke-miterlimit="10" pointer-events="none"/><g fill="black" font-family="Arial,Helvetica" text-anchor="middle" font-size="12px"><text x="1239" y="441.5">Consultar usuário [email, senha]</text></g><path d="M 1229 407 C 1229 403 1244 403 1244 407 L 1244 421 C 1244 425 1229 425 1229 421 Z" fill="white" stroke="black" stroke-miterlimit="10" pointer-events="none"/><path d="M 1229 407 C 1229 410 1244 410 1244 407 M 1229 408.5 C 1229 411.5 1244 411.5 1244 408.5 M 1229 410 C 1229 413 1244 413 1244 410" fill="none" stroke="black" stroke-miterlimit="10" pointer-events="none"/><ellipse cx="1597" cy="821" rx="17.5" ry="17.5" fill="#ffffff" stroke="black" pointer-events="none"/><ellipse cx="1597" cy="821" rx="14.4375" ry="14.4375" fill="#000000" stroke="black" pointer-events="none"/><path d="M 1309 821 L 1434 821 Q 1444 821 1454 821 L 1570.88 821" fill="none" stroke="black" stroke-miterlimit="10" pointer-events="none"/><path d="M 1577.88 821 L 1570.88 824.5 L 1570.88 817.5 Z" fill="black" stroke="black" stroke-miterlimit="10" pointer-events="none"/></g></svg>